<?xml version="1.0" standalone="no"?>
<!DOCTYPE svg PUBLIC "-//W3C//DTD SVG 20010904//EN"
 "http://www.w3.org/TR/2001/REC-SVG-20010904/DTD/svg10.dtd">
<svg version="1.0" xmlns="http://www.w3.org/2000/svg"
 width="300.000000pt" height="300.000000pt" viewBox="0 0 300.000000 300.000000"
 preserveAspectRatio="xMidYMid meet">

<g transform="translate(0.000000,300.000000) scale(0.100000,-0.100000)"
fill="#000000" stroke="none">
<path d="M610 1671 c0 -124 1 -131 20 -131 19 0 20 7 20 103 l0 102 53 -100
c45 -85 58 -100 80 -103 l27 -3 0 130 c0 124 -1 131 -20 131 -18 0 -20 -8 -22
-96 l-3 -97 -51 94 c-43 78 -56 95 -78 97 l-26 3 0 -130z"/>
<path d="M932 1780 c-69 -43 -81 -154 -21 -205 40 -33 70 -40 113 -25 97 32
113 169 27 227 -42 28 -76 29 -119 3z m117 -36 c31 -39 29 -117 -4 -149 -15
-16 -36 -25 -55 -25 -49 0 -80 38 -80 98 0 67 27 102 80 102 30 0 43 -6 59
-26z"/>
<path d="M1270 1670 c0 -123 1 -130 20 -130 19 0 20 7 20 130 0 123 -1 130
-20 130 -19 0 -20 -7 -20 -130z"/>
<path d="M1380 1670 c0 -123 1 -130 20 -130 19 0 20 7 20 113 l1 112 32 -85
c19 -50 38 -86 47 -88 12 -2 24 21 45 85 l30 88 3 -112 c2 -105 4 -113 22
-113 19 0 20 7 20 130 l0 130 -34 0 c-36 0 -36 -1 -67 -92 -7 -21 -16 -38 -19
-38 -4 0 -17 29 -29 65 -22 63 -24 65 -57 65 l-34 0 0 -130z"/>
<path d="M1716 1678 c-25 -68 -46 -126 -46 -130 0 -5 6 -8 14 -8 8 0 20 16 27
35 13 34 14 35 70 35 56 0 58 -1 64 -31 7 -29 29 -48 42 -35 3 3 -15 62 -42
131 -35 93 -52 125 -65 125 -13 0 -29 -31 -64 -122z m82 25 c5 -16 13 -36 17
-45 6 -16 1 -18 -35 -18 -36 0 -41 2 -35 18 4 9 12 29 17 45 5 15 14 27 18 27
4 0 13 -12 18 -27z"/>
<path d="M1990 1782 c-66 -32 -88 -124 -45 -188 23 -36 80 -57 128 -50 69 11
77 20 77 81 l0 55 -50 0 c-38 0 -50 -4 -50 -15 0 -10 10 -15 30 -15 28 0 30
-2 30 -40 l0 -40 -50 0 c-70 0 -100 29 -100 98 0 68 27 102 81 102 22 0 53 -7
69 -15 25 -13 30 -13 30 -1 0 16 -58 46 -92 46 -12 0 -39 -8 -58 -18z"/>
<path d="M2210 1670 l0 -130 85 0 c69 0 85 3 85 15 0 12 -14 15 -65 15 l-65 0
0 45 0 45 60 0 c47 0 60 3 60 15 0 12 -13 15 -60 15 l-60 0 0 40 0 40 65 0
c51 0 65 3 65 15 0 12 -16 15 -85 15 l-85 0 0 -130z"/>
<path d="M622 1308 c-11 -29 -32 -84 -46 -122 -30 -80 -31 -86 -11 -86 8 0 21
16 29 35 15 34 17 35 69 35 53 0 55 -1 61 -30 5 -29 30 -49 43 -36 6 6 -4 35
-60 179 -37 96 -56 101 -85 25z m58 -55 c8 -21 16 -41 18 -45 2 -5 -15 -8 -38
-8 -36 0 -41 2 -35 18 4 9 12 29 17 45 13 36 21 34 38 -10z"/>
<path d="M784 1333 c4 -15 26 -74 48 -130 29 -72 46 -103 58 -103 11 0 30 35
63 120 52 132 54 143 31 138 -10 -2 -30 -39 -51 -95 -20 -51 -39 -93 -43 -93
-4 0 -23 42 -43 93 -23 61 -41 93 -52 95 -15 3 -16 -1 -11 -25z"/>
<path d="M1082 1308 c-11 -29 -32 -84 -46 -122 -30 -80 -31 -86 -11 -86 8 0
21 16 29 35 15 34 17 35 70 35 53 0 55 -1 61 -31 7 -29 29 -48 42 -36 5 6 -4
34 -67 200 -28 76 -51 77 -78 5z m56 -45 c5 -16 13 -36 17 -45 6 -16 1 -18
-35 -18 -36 0 -41 2 -35 18 4 9 12 29 17 45 5 15 14 27 18 27 4 0 13 -12 18
-27z"/>
<path d="M1280 1230 c0 -123 1 -130 20 -130 19 0 20 7 20 130 0 123 -1 130
-20 130 -19 0 -20 -7 -20 -130z"/>
<path d="M1390 1230 l0 -130 80 0 c64 0 80 3 80 15 0 12 -13 15 -60 15 l-60 0
0 115 c0 108 -1 115 -20 115 -19 0 -20 -7 -20 -130z"/>
<path d="M1670 1357 c0 -1 -22 -60 -49 -130 -44 -114 -47 -127 -30 -127 12 0
24 12 33 35 15 34 17 35 70 35 53 0 55 -1 61 -31 7 -29 29 -48 42 -36 3 4 -6
37 -20 74 -68 183 -68 183 -88 183 -10 0 -19 -1 -19 -3z m38 -94 c5 -16 13
-36 17 -45 6 -16 1 -18 -35 -18 -36 0 -41 2 -35 18 4 9 12 29 17 45 5 15 14
27 18 27 4 0 13 -12 18 -27z"/>
<path d="M1850 1230 l0 -130 60 0 c68 0 115 19 125 50 9 28 -3 58 -27 71 -20
11 -20 11 3 35 19 20 21 29 13 51 -13 37 -48 53 -116 53 l-58 0 0 -130z m128
91 c8 -5 12 -21 10 -37 -3 -27 -6 -29 -50 -32 l-48 -3 0 40 c0 41 0 41 38 41
20 0 43 -4 50 -9z m10 -113 c17 -17 15 -65 -4 -72 -9 -3 -33 -6 -55 -6 l-39 0
0 45 0 45 43 0 c24 0 48 -5 55 -12z"/>
<path d="M2100 1230 l0 -130 80 0 c64 0 80 3 80 15 0 12 -13 15 -60 15 l-60 0
0 115 c0 108 -1 115 -20 115 -19 0 -20 -7 -20 -130z"/>
<path d="M2300 1230 l0 -130 85 0 c69 0 85 3 85 15 0 12 -14 15 -65 15 l-65 0
0 45 0 45 60 0 c47 0 60 3 60 15 0 12 -13 15 -60 15 l-60 0 0 40 0 40 65 0
c51 0 65 3 65 15 0 12 -16 15 -85 15 l-85 0 0 -130z"/>
</g>
</svg>
